<?xml version="1.0" standalone="no"?>
<!DOCTYPE svg PUBLIC "-//W3C//DTD SVG 20010904//EN"
 "http://www.w3.org/TR/2001/REC-SVG-20010904/DTD/svg10.dtd">
<svg version="1.0" xmlns="http://www.w3.org/2000/svg"
 width="562.000000pt" height="256.000000pt" viewBox="0 0 562.000000 256.000000"
 preserveAspectRatio="xMidYMid meet">

<g transform="translate(0.000000,256.000000) scale(0.100000,-0.100000)"
fill="#000000" stroke="none">
<path d="M4150 1325 l0 -675 124 0 124 0 4 283 c3 272 4 284 26 329 28 56 61
83 126 100 89 24 184 -23 206 -101 5 -20 10 -165 10 -323 l0 -288 125 0 126 0
-3 353 -3 353 -30 59 c-34 67 -92 117 -158 137 -23 7 -82 13 -132 13 -103 0
-162 -18 -238 -71 -26 -19 -49 -34 -52 -34 -3 0 -5 122 -5 270 l0 270 -125 0
-125 0 0 -675z"/>
<path d="M715 1934 c-159 -23 -278 -101 -336 -222 -17 -37 -22 -66 -23 -132
-1 -112 18 -162 89 -229 63 -60 132 -93 309 -151 194 -62 250 -96 276 -164 22
-59 -11 -136 -73 -168 -33 -17 -58 -22 -117 -21 -126 1 -209 55 -247 162 -14
41 -21 50 -38 46 -11 -2 -60 -13 -110 -25 -49 -11 -101 -23 -114 -26 -20 -4
-23 -9 -17 -37 20 -102 106 -211 212 -269 118 -64 324 -88 468 -53 134 32 235
108 284 213 22 49 26 71 26 152 1 84 -3 101 -26 145 -57 108 -147 166 -365
236 -191 61 -230 78 -263 115 -52 60 -32 152 42 190 42 22 151 30 206 15 56
-16 117 -71 135 -124 11 -32 19 -41 33 -39 64 10 234 56 234 63 0 4 -9 33 -21
64 -39 105 -152 199 -287 239 -54 15 -222 28 -277 20z"/>
<path d="M2653 1549 c-34 -12 -80 -37 -101 -55 -22 -18 -42 -30 -46 -27 -3 3
-6 24 -6 45 l0 38 -258 0 -258 0 -52 -137 c-123 -323 -168 -434 -175 -436 -8
-2 -81 191 -184 483 l-30 85 -137 3 c-75 1 -136 -1 -136 -6 0 -4 81 -196 180
-426 99 -230 180 -425 180 -434 0 -8 -39 -101 -86 -206 -48 -105 -93 -206
-100 -223 l-14 -33 129 0 129 0 17 43 c9 23 45 110 80 192 90 213 205 488 335
800 62 149 117 274 121 280 5 5 9 -192 9 -438 l0 -447 124 0 124 0 4 283 c3
261 5 285 24 328 26 55 61 82 131 98 90 22 159 -5 192 -72 20 -41 21 -59 21
-340 l0 -297 125 0 125 0 0 345 c0 323 -1 348 -21 399 -24 66 -87 126 -157
151 -26 9 -87 19 -137 21 -74 4 -101 1 -152 -17z"/>
<path d="M3518 1554 c-117 -28 -230 -108 -285 -202 -86 -147 -86 -358 0 -505
56 -95 179 -181 298 -207 72 -16 228 -8 294 14 70 24 153 84 198 142 37 48 83
151 72 162 -3 3 -53 11 -113 18 -119 14 -107 18 -152 -56 -45 -74 -158 -110
-251 -79 -57 20 -100 59 -128 118 -22 47 -26 70 -26 141 0 71 4 94 26 141 55
117 184 161 306 105 43 -20 58 -34 84 -81 l32 -56 40 7 c22 3 72 9 111 13 68
6 71 7 68 31 -5 39 -48 121 -87 167 -99 116 -308 171 -487 127z"/>
<path d="M5256 910 c-115 -35 -136 -195 -32 -259 90 -56 216 11 216 115 0 25
-7 58 -15 74 -29 56 -106 88 -169 70z"/>
</g>
</svg>
